:SAMPLES-PER-SECOND 30
:FULLY-SPECIFIED
:DEGREES
823
root  37.3159 37.1008 -5.25563 118.386 78.9666 106.321
RightUpLeg  -53.2291 -30.2718 9.24811
RightLeg  33.5359 -2.19192 -1.82525
RightFoot  1.84606 1.69344 -14.4434
RightToes  0.000482159 0.542163 -0.142577
Spine  52.8795 -6.53509 20.2972
Spine1  9.38927 5.02778 -5.66109
HEad  -16.3474 -27.399 7.42504
LeftShoulder1  10.9764 -18.0282 -44.3796
LeftArm  -0.0456326 12.013 -28.0046
LeftForeArm  30.3349 -33.0206 -5.57048
LeftHand  -0.25398 0.0180481 5.50724
RightShoulder  3.7739 10.574 20.4339
RightArm  -28.2122 49.6053 13.297
RightForeArm  -3.5105 -1.72181 5.41323
RightHand  -4.06192 11.7723 -27.4197
LeftUpLeg  -46.589 17.8759 -14.7041
LeftLeg  51.6244 1.8763 3.03803
LeftFoot  0.130598 0.266249 -2.63262
LeftToes  1.06246e-005 4.65854e-005 -8.18502e-006
824
root  37.9656 37.044 -5.22384 116.308 78.5131 101.891
RightUpLeg  -55.8451 -29.0807 9.07298
RightLeg  35.7192 -2.68724 -2.34333
RightFoot  0.3986 1.46161 -14.0993
RightToes  0.000482159 0.542163 -0.142577
Spine  55.2657 -6.67515 20.2183
Spine1  8.80016 5.59276 -6.33377
HEad  -18.8306 -27.987 9.10452
LeftShoulder1  11.1222 -18.3923 -44.2079
LeftArm  0.435171 12.1361 -28.0847
LeftForeArm  29.4301 -33.3166 -5.69511
LeftHand  -0.25398 0.0180481 5.50724
RightShoulder  3.39656 10.1386 18.3707
RightArm  -31.3691 51.5017 10.1098
RightForeArm  -4.47485 -0.927072 5.22244
RightHand  -4.23753 12.25 -27.8117
LeftUpLeg  -48.092 15.4161 -13.3237
LeftLeg  41.0631 -0.595976 -0.166879
LeftFoot  -0.0686352 0.599797 -6.0662
LeftToes  1.06246e-005 4.65854e-005 -8.18502e-006
825
root  38.5683 36.9157 -5.25037 113.992 78.0498 97.4653
RightUpLeg  -58.3044 -27.9793 8.64458
RightLeg  38.0807 -2.83567 -2.65917
RightFoot  -0.824417 1.26993 -13.778
RightToes  0.000482159 0.542163 -0.142577
Spine  57.1602 -6.61866 19.95
Spine1  9.12159 6.16297 -6.48639
HEad  -21.0845 -28.5912 10.282
LeftShoulder1  11.3763 -18.803 -44.3926
LeftArm  0.78232 12.3176 -28.0805
LeftForeArm  29.4269 -33.8547 -5.83004
LeftHand  -0.25398 0.0180481 5.50724
RightShoulder  2.95012 9.64614 15.7089
RightArm  -34.8228 53.4079 6.0683
RightForeArm  -3.84856 -0.836487 4.9621
RightHand  -4.28454 12.397 -27.8843
LeftUpLeg  -48.5221 12.2432 -11.1288
LeftLeg  30.0989 -3.96348 -2.12127
LeftFoot  0.718633 0.839347 -7.96527
LeftToes  1.06246e-005 4.65854e-005 -8.18502e-006
826
root  39.1708 36.6453 -5.38725 110.084 77.3848 91.6344
RightUpLeg  -61.4466 -27.3583 8.24679
RightLeg  41.4674 -2.58958 -2.74772
RightFoot  -2.01547 1.10873 -13.678
RightToes  0.000482159 0.542163 -0.142577
Spine  58.8864 -6.51934 19.4344
Spine1  9.36084 6.49626 -6.7961
HEad  -22.9818 -28.9557 11.309
LeftShoulder1  11.5074 -18.9552 -44.606
LeftArm  1.15105 12.5547 -27.8565
LeftForeArm  30.5808 -34.3221 -5.88182
LeftHand  -0.25398 0.0180481 5.50724
RightShoulder  2.62428 9.38121 13.4349
RightArm  -38.5839 55.165 1.05339
RightForeArm  -2.75189 -1.37187 4.71021
RightHand  -4.36356 12.5109 -28.1977
LeftUpLeg  -48.4537 8.29937 -8.27105
LeftLeg  21.0124 -7.96159 -3.06249
LeftFoot  3.00776 1.33165 -10.6406
LeftToes  1.06246e-005 4.65854e-005 -8.18502e-006
827
root  39.7599 36.2966 -5.63313 105.104 76.5212 84.9371
RightUpLeg  -64.8963 -26.792 7.62866
RightLeg  45.4588 -2.36369 -2.90187
RightFoot  -3.14125 0.937978 -13.2998
RightToes  0.000482159 0.542163 -0.142577
Spine  60.7046 -6.09104 18.6623
Spine1  9.41119 6.73779 -6.4477
HEad  -24.4897 -29.1908 11.8097
LeftShoulder1  11.8568 -18.9305 -46.0732
LeftArm  2.24355 12.2886 -26.5868
LeftForeArm  31.4411 -34.1277 -5.78397
LeftHand  -0.25398 0.0180481 5.50724
RightShoulder  2.3256 9.19617 11.1671
RightArm  -42.4291 56.2753 -4.05465
RightForeArm  -2.25218 -1.88719 4.44227
RightHand  -4.73355 13.1833 -29.398
LeftUpLeg  -49.1834 4.57196 -5.80696
LeftLeg  16.9569 -10.9529 -3.44539
LeftFoot  6.20459 1.96885 -13.0028
LeftToes  1.06246e-005 4.65854e-005 -8.18502e-006
828
root  40.2553 36.0052 -5.94808 100.785 75.8057 79.3789
RightUpLeg  -67.3466 -25.8363 6.40224
RightLeg  48.7691 -2.35854 -3.24077
RightFoot  -3.70462 0.795484 -12.2378
RightToes  0.000482159 0.542163 -0.142577
Spine  62.7114 -6.40094 18.3032
Spine1  9.35712 6.98435 -7.23605
HEad  -25.8139 -29.0195 12.5765
LeftShoulder1  11.9081 -18.8578 -46.4344
LeftArm  3.31462 11.7701 -25.9702
LeftForeArm  31.8685 -33.4089 -5.57988
LeftHand  -0.25398 0.0180481 5.50724
RightShoulder  2.12799 9.14095 9.5109
RightArm  -46.6213 56.9024 -8.83835
RightForeArm  -1.88282 -2.10717 4.00218
RightHand  -5.27182 14.1907 -30.969
LeftUpLeg  -51.1991 2.90427 -5.35223
LeftLeg  18.8967 -11.9668 -4.20741
LeftFoot  7.98513 2.03037 -12.1718
LeftToes  1.06246e-005 4.65854e-005 -8.18502e-006
